<svg xmlns="http://www.w3.org/2000/svg" xmlns:svg="http://www.w3.org/2000/svg" xmlns:xlink="http://www.w3.org/1999/xlink" version="1.0" height="1150pt" width="1150pt" viewBox="190 312 1158 1156" ><defs><style type="text/css">
            @font-face {
                font-family: 'noto_regular';
                src: url('https://app.creately.com/diagram/assets/fonts/noto/noto-regular.woff') format('woff'),
                     url('https://app.creately.com/diagram/assets/fonts/noto/noto-regular.woff2') format('woff2');
                font-weight: normal;
                font-style: normal;
            }
        p {
            margin: 0;
        }
        </style></defs><defs><style>
            span{ display: inline-block; }
        </style></defs><g id="2dt64pn5bt"><g transform="translate(464.9 545)"><rect x="0" y="0" width="102" height="52" fill="rgba(255,255,255,1)" stroke="#ee1d24" stroke-width="2" stroke-linecap="round" stroke-linejoin="round"/></g><g transform="translate(495.4, 561.5) rotate(0, 20.5, 9.5)" width="41" height="19"><text text-decoration="none" x="2" fill="rgb(191, 42, 47)" font-weight="bold" font-size="10pt" font-family="Arial"  y="17">Event</text><text text-decoration="none" x="39" fill="#4b4b4b" font-size="10pt" font-family="noto_regular"  y="17"></text></g></g><g id="ccecva15qj"><g transform="translate(864.95 545)"><rect x="0" y="0" width="102" height="52" fill="rgba(255,255,255,1)" stroke="#ee1d24" stroke-width="2" stroke-linecap="round" stroke-linejoin="round"/></g><g transform="translate(899.95, 561.5) rotate(0, 16, 9.5)" width="32" height="19"><text text-decoration="none" x="1.5" fill="rgb(191, 42, 47)" font-weight="bold" font-size="10pt" font-family="Arial"  y="17">user</text><text text-decoration="none" x="30.5" fill="#4b4b4b" font-size="10pt" font-family="noto_regular"  y="17"></text></g></g><g id="189tllrd2u"><g transform="translate(640 535)"><path d="M 182.1426601409912,43.85391300916672 L 91.79411840438843,87.56860724687576 L 1.4455766677856445,43.85391300916672 L 91.79411840438843,0.41765631437301637 Z" fill="rgb(255, 255, 255)" stroke="rgb(117, 193, 155)" stroke-width="1.5" vector-effect="non-scaling-stroke"/></g><g transform="translate(651.9638364779875, 540.6487341772151) rotate(0, 46, 0)" width="92" height="37"><text text-decoration="none" x="5.5" fill="#4b4b4b" font-weight="bold" font-size="11pt" font-family="Arial"  y="16">Registered</text><text text-decoration="none" x="86.5" fill="#4b4b4b" font-weight="bold" font-size="11pt" font-family="Arial"  y="16"></text><text text-decoration="none" x="34.5" fill="#4b4b4b" font-weight="bold" font-size="11pt" font-family="Arial"  y="38">by&#160;</text><text text-decoration="none" x="57.5" fill="#4b4b4b" font-size="10pt" font-family="noto_regular"  y="38"></text></g></g><g id="etfgl7gvfm"><g transform="translate(440 410)"><ellipse cx="50.5" cy="25.5" rx="50.5" ry="25.5" fill="rgba(255,255,255,1)" stroke="#0054a5" stroke-width="2" stroke-linecap="round" stroke-linejoin="round"/></g><g transform="translate(446, 426) rotate(0, 44.5, 9.5)" width="89" height="19"><text text-decoration="underline" x="4.5" fill="rgb(0, 0, 0)" font-weight="bold" font-size="10pt" font-family="Arial"  y="17">Event&#160;</text><text text-decoration="underline" x="44.5" fill="rgb(0, 0, 0)" font-weight="bold" font-size="10pt" font-family="Arial"  y="17">Name</text><text text-decoration="none" x="84.5" fill="#4b4b4b" font-size="10pt" font-family="noto_regular"  y="17"></text></g></g><g id="vpm3mc2qzy"><g transform="translate(319.9 440)"><ellipse cx="50.5" cy="25.5" rx="50.5" ry="25.5" fill="rgba(255,255,255,1)" stroke="#003494" stroke-width="2" stroke-linecap="round" stroke-linejoin="round"/></g><g transform="translate(354.4, 456) rotate(0, 16, 9.5)" width="32" height="19"><text text-decoration="none" x="1" fill="rgb(20, 56, 114)" font-weight="bold" font-size="10pt" font-family="Arial"  y="17">Title</text><text text-decoration="none" x="31" fill="#4b4b4b" font-size="10pt" font-family="noto_regular"  y="17"></text></g></g><g id="1xau12pl15"><g transform="translate(290 520)"><ellipse cx="50.5" cy="25.5" rx="50.5" ry="25.5" fill="rgba(255,255,255,1)" stroke="#003494" stroke-width="2" stroke-linecap="round" stroke-linejoin="round"/></g><g transform="translate(309.5, 536) rotate(0, 31, 9.5)" width="62" height="19"><text text-decoration="none" x="3.5" fill="rgb(20, 56, 114)" font-weight="bold" font-size="10pt" font-family="Arial"  y="17">pin&#160;</text><text text-decoration="none" x="27.5" fill="rgb(20, 56, 114)" font-weight="bold" font-size="10pt" font-family="Arial"  y="17">code</text><text text-decoration="none" x="58.5" fill="#4b4b4b" font-size="10pt" font-family="noto_regular"  y="17"></text></g></g><g id="c5nkfy23m5"><g transform="translate(554.9 436)"><ellipse cx="50.5" cy="25.000000029802322" rx="50.5" ry="25.000000029802322" fill="rgba(255,255,255,1)" stroke="#003494" stroke-width="2" stroke-linecap="round" stroke-linejoin="round"/></g><g transform="translate(559.9, 451.5000000298023) rotate(0, 45.5, 9.5)" width="91" height="19"><text text-decoration="none" x="4.5" fill="rgb(20, 56, 114)" font-weight="bold" font-size="10pt" font-family="Arial"  y="17">Event&#160;</text><text text-decoration="none" x="44.5" fill="rgb(20, 56, 114)" font-weight="bold" font-size="10pt" font-family="Arial"  y="17">Venue</text><text text-decoration="none" x="86.5" fill="#4b4b4b" font-size="10pt" font-family="noto_regular"  y="17"></text></g></g><g id="qedo5l3wer"><g transform="translate(300 605)"><ellipse cx="50.5" cy="25.5" rx="50.5" ry="25.5" fill="rgba(255,255,255,1)" stroke="#003494" stroke-width="2" stroke-linecap="round" stroke-linejoin="round"/></g><g transform="translate(318, 613) rotate(0, 32.5, 17.5)" width="65" height="35"><text text-decoration="none" x="3.5" fill="rgb(20, 56, 114)" font-weight="bold" font-size="10pt" font-family="Arial"  y="14">creator&#x27;s</text><text text-decoration="none" x="61.5" fill="rgb(20, 56, 114)" font-weight="bold" font-size="10pt" font-family="Arial"  y="14"></text><text text-decoration="none" x="7.5" fill="rgb(20, 56, 114)" font-weight="bold" font-size="10pt" font-family="Arial"  y="36">address</text><text text-decoration="none" x="57.5" fill="#4b4b4b" font-size="10pt" font-family="noto_regular"  y="36"></text></g></g><g id="6kv5w1xw8x"><g transform="translate(870 430)"><ellipse cx="50.5" cy="25.5" rx="50.5" ry="25.5" fill="rgba(255,255,255,1)" stroke="#003494" stroke-width="2" stroke-linecap="round" stroke-linejoin="round"/></g><g transform="translate(891.5, 446) rotate(0, 29, 9.5)" width="58" height="19"><text text-decoration="none" x="4" fill="rgb(20, 56, 114)" font-weight="bold" font-size="10pt" font-family="Arial"  y="17">address</text><text text-decoration="none" x="54" fill="#4b4b4b" font-size="10pt" font-family="noto_regular"  y="17"></text></g></g><g id="2glsfwjbzl"><g transform="translate(994.8499999999999 450)"><ellipse cx="50.5" cy="25.5" rx="50.5" ry="25.5" fill="rgba(255,255,255,1)" stroke="#003494" stroke-width="2" stroke-linecap="round" stroke-linejoin="round"/></g><g transform="translate(1010.3499999999999, 466) rotate(0, 35, 9.5)" width="70" height="19"><text text-decoration="none" x="4.5" fill="rgb(20, 56, 114)" font-weight="bold" font-size="10pt" font-family="Arial"  y="17">password</text><text text-decoration="none" x="65.5" fill="#4b4b4b" font-size="10pt" font-family="noto_regular"  y="17"></text></g></g><g id="1rdxcx5wn6"><g transform="translate(1064.8 545)"><ellipse cx="50.5" cy="25.5" rx="50.5" ry="25.5" fill="rgba(255,255,255,1)" stroke="#003494" stroke-width="2" stroke-linecap="round" stroke-linejoin="round"/></g><g transform="translate(1093.8, 561) rotate(0, 21.5, 9.5)" width="43" height="19"><text text-decoration="none" x="1.5" fill="rgb(20, 56, 114)" font-weight="bold" font-size="10pt" font-family="Arial"  y="17">Name</text><text text-decoration="none" x="41.5" fill="#4b4b4b" font-size="10pt" font-family="noto_regular"  y="17"></text></g></g><g id="9nthxehxw2"><g><path d="M 400,630 L 514.9,595" fill="none" stroke="#5573b7" stroke-width="1.5" stroke-linecap="round" stroke-linejoin="round"/></g></g><g id="1chwiyi1gs"><g><path d="M 390,545 L 464.9,570" fill="none" stroke="#5573b7" stroke-width="1.5" stroke-linecap="round" stroke-linejoin="round"/></g></g><g id="9511zcbn9n"><g><path d="M 419.9,465 L 514.9,545" fill="none" stroke="#5573b7" stroke-width="1.5" stroke-linecap="round" stroke-linejoin="round"/></g></g><g id="239greqr3z"><g><path d="M 505,460 L 514.9,545" fill="none" stroke="#5573b7" stroke-width="1.5" stroke-linecap="round" stroke-linejoin="round"/></g></g><g id="17m2yy51i4"><g><path d="M 574.9,481 L 514.9,545" fill="none" stroke="#5573b7" stroke-width="1.5" stroke-linecap="round" stroke-linejoin="round"/></g></g><g id="4qqhukf3ns"><g><path d="M 914.95,545 L 920,480" fill="none" stroke="#5573b7" stroke-width="1.5" stroke-linecap="round" stroke-linejoin="round"/></g></g><g id="2b6dfyf2wz"><g><path d="M 964.95,570 L 1014.85,495" fill="none" stroke="#5573b7" stroke-width="1.5" stroke-linecap="round" stroke-linejoin="round"/></g></g><g id="a45tzjgi2x"><g><path d="M 964.95,570 L 1064.8,570" fill="none" stroke="#5573b7" stroke-width="1.5" stroke-linecap="round" stroke-linejoin="round"/></g></g><g id="2g4kxsxij0"><g transform="translate(449.6 760)"><path d="M 163.44339622641508,48.84493670886075 L 82.37028301886792,97.53481012658226 L 1.2971698113207546,48.84493670886075 L 82.37028301886792,0.4651898734177214 Z" fill="rgb(255, 255, 255)" stroke="rgb(117, 193, 155)" stroke-width="1.5" vector-effect="non-scaling-stroke"/></g><g transform="translate(460.10864779874214, 755.3193876029277) rotate(0, 41.5, 0)" width="83" height="55"><text text-decoration="none" x="4" fill="#4b4b4b" font-weight="bold" font-size="11pt" font-family="Arial"  y="16">Managed/</text><text text-decoration="none" x="79" fill="#4b4b4b" font-weight="bold" font-size="11pt" font-family="Arial"  y="16"></text><text text-decoration="none" x="12" fill="#4b4b4b" font-weight="bold" font-size="11pt" font-family="Arial"  y="37">created</text><text text-decoration="none" x="71" fill="#4b4b4b" font-weight="bold" font-size="11pt" font-family="Arial"  y="37"></text><text text-decoration="none" x="30" fill="#4b4b4b" font-weight="bold" font-size="11pt" font-family="Arial"  y="59">by&#160;</text><text text-decoration="none" x="53" fill="#4b4b4b" font-size="10pt" font-family="noto_regular"  y="59"></text></g></g><g id="2i3sm33u4q"><g transform="translate(449.99999999999994 315)"><rect x="0" y="0" width="549.3076923076925" height="56.92307692307692" fill="rgba(255,255,255,0.01)" stroke="rgba(255,255,255,0.01)" stroke-width="NaN" stroke-linecap="round" stroke-linejoin="round"/></g><g transform="translate(491.1538461538462, 315.46153846153845) rotate(0, 233.5, 28)" width="467" height="56"><text text-decoration="none" x="28" fill="rgb(0, 0, 0)" font-weight="bold" font-size="18pt" font-family="Arial"  y="26">E-R&#160;</text><text text-decoration="none" x="71" fill="rgb(0, 0, 0)" font-weight="bold" font-size="18pt" font-family="Arial"  y="26">Diagram&#160;</text><text text-decoration="none" x="181" fill="rgb(0, 0, 0)" font-weight="bold" font-size="18pt" font-family="Arial"  y="26">of&#160;</text><text text-decoration="none" x="211" fill="rgb(0, 0, 0)" font-weight="bold" font-size="18pt" font-family="Arial"  y="26">Event&#160;</text><text text-decoration="none" x="284" fill="rgb(0, 0, 0)" font-weight="bold" font-size="18pt" font-family="Arial"  y="26">Management&#160;</text><text text-decoration="none" x="190" fill="rgb(0, 0, 0)" font-weight="bold" font-size="18pt" font-family="Arial"  y="59">System</text><text text-decoration="none" x="277" fill="#4b4b4b" font-size="10pt" font-family="noto_regular"  y="59"></text></g></g><g id="50u4hkf3os"><g><path d="M 864.95,570 L 785,570" fill="none" stroke="#0054a5" stroke-width="2" stroke-linecap="round" stroke-linejoin="round"/></g></g><g id="1zojrk921v"><g><path d="M 514.9,595 L 514.6,760" fill="none" stroke="#0054a5" stroke-width="2" stroke-linecap="round" stroke-linejoin="round"/></g></g><g id="18z4mffzo3"><g><path d="M 564.9,570 L 640,570" fill="none" stroke="#0054a5" stroke-width="1.5" stroke-linecap="round" stroke-linejoin="round"/></g></g><g id="5lq89v676j"><g><path d="M 604.6,810 L 710,885" fill="none" stroke="#5573b7" stroke-width="1.5" stroke-linecap="round" stroke-linejoin="round"/></g></g><g id="21n5ogggt5"><g><path d="M 390,680 L 515,595" fill="none" stroke="#0054a5" stroke-width="1.5" stroke-linecap="round" stroke-linejoin="round"/></g></g><g id="1y4b4u4xqn"><g transform="translate(360 660)"><ellipse cx="45.00000178813934" cy="25" rx="45.00000178813934" ry="25" fill="rgba(255,255,255,1)" stroke="#003494" stroke-width="2" stroke-linecap="round" stroke-linejoin="round"/></g><g transform="translate(387.50000178813934, 675) rotate(0, 17.5, 10)" width="35" height="20"><text text-decoration="none" x="2" fill="rgb(20, 56, 114)" font-weight="bold" font-size="13pt" font-family="Lato"  y="19">city</text><text text-decoration="none" x="33" fill="#4b4b4b" font-size="10pt" font-family="noto_regular"  y="19"></text></g></g><g id="2g94ozqvt9"><g><path d="M 1064,612 L 965,585" fill="none" stroke="#5573b7" stroke-width="1.5" stroke-linecap="round" stroke-linejoin="round"/></g></g><g id="29oriq3wwm"><g transform="translate(1040 610)"><ellipse cx="50" cy="25" rx="50" ry="25" fill="rgba(255,255,255,1)" stroke="#003494" stroke-width="2" stroke-linecap="round" stroke-linejoin="round"/></g><g transform="translate(1061.5, 625.5) rotate(0, 28.5, 9.5)" width="57" height="19"><text text-decoration="none" x="2" fill="rgb(20, 56, 114)" font-weight="bold" font-size="10pt" font-family="Lato"  y="17">Country</text><text text-decoration="none" x="55" fill="#4b4b4b" font-size="10pt" font-family="noto_regular"  y="17"></text></g></g><g id="6rtgvu0kjh"><g><path d="M 989,641 L 955,595" fill="none" stroke="#5573b7" stroke-width="1.5" stroke-linecap="round" stroke-linejoin="round"/></g></g><g id="59z0ymhkhh"><g transform="translate(945 640)"><ellipse cx="50" cy="25" rx="50" ry="25" fill="rgba(255,255,255,1)" stroke="#003494" stroke-width="2" stroke-linecap="round" stroke-linejoin="round"/></g><g transform="translate(981, 655.5) rotate(0, 14, 9.5)" width="28" height="19"><text text-decoration="none" x="1.5" fill="rgb(20, 56, 114)" font-weight="bold" font-size="10pt" font-family="Lato"  y="17">City</text><text text-decoration="none" x="26.5" fill="#4b4b4b" font-size="10pt" font-family="noto_regular"  y="17"></text></g></g><g id="27vmsrfjs7"><g><path d="M 1147,484 L 965,570" fill="none" stroke="#5573b7" stroke-width="1.5" stroke-linecap="round" stroke-linejoin="round"/></g></g><g id="2kf1c944nf"><g transform="translate(1140 455)"><ellipse cx="50" cy="25" rx="50" ry="25" fill="rgba(255,255,255,1)" stroke="#003494" stroke-width="2" stroke-linecap="round" stroke-linejoin="round"/></g><g transform="translate(1167.5, 470.5) rotate(0, 22.5, 9.5)" width="45" height="19"><text text-decoration="none" x="2.5" fill="rgb(20, 56, 114)" font-weight="bold" font-size="10pt" font-family="Lato"  y="17">E-mail</text><text text-decoration="none" x="42.5" fill="#4b4b4b" font-size="10pt" font-family="noto_regular"  y="17"></text></g></g><g id="13h6jc7t70"><g><path d="M 820,451 L 890,545" fill="none" stroke="#5573b7" stroke-width="1.5" stroke-linecap="round" stroke-linejoin="round"/></g></g><g id="1g73kiiatt"><g transform="translate(765 425)"><ellipse cx="50" cy="25" rx="50" ry="25" fill="rgba(255,255,255,1)" stroke="#003494" stroke-width="2" stroke-linecap="round" stroke-linejoin="round"/></g><g transform="translate(786.5, 432.5) rotate(0, 28.5, 17.5)" width="57" height="35"><text text-decoration="none" x="2.5" fill="rgb(20, 56, 114)" font-weight="bold" font-size="10pt" font-family="Lato"  y="14">Contact</text><text text-decoration="none" x="54.5" fill="rgb(20, 56, 114)" font-weight="bold" font-size="10pt" font-family="Lato"  y="14"></text><text text-decoration="none" x="2" fill="rgb(20, 56, 114)" font-weight="bold" font-size="10pt" font-family="Lato"  y="36">number</text><text text-decoration="none" x="55" fill="#4b4b4b" font-size="10pt" font-family="noto_regular"  y="36"></text></g></g><g id="l5i0f13l4t"><g><path d="M 903,676 L 900,595" fill="none" stroke="#5573b7" stroke-width="1.5" stroke-linecap="round" stroke-linejoin="round"/></g></g><g id="2az074pl8z"><g transform="translate(840 655)"><ellipse cx="50" cy="25" rx="50" ry="25" fill="rgba(255,255,255,1)" stroke="#003494" stroke-width="2" stroke-linecap="round" stroke-linejoin="round"/></g><g transform="translate(874, 670.5) rotate(0, 16, 9.5)" width="32" height="19"><text text-decoration="none" x="1.5" fill="rgb(20, 56, 114)" font-weight="bold" font-size="10pt" font-family="Lato"  y="17">DOB</text><text text-decoration="none" x="30.5" fill="#4b4b4b" font-size="10pt" font-family="noto_regular"  y="17"></text></g></g><g id="1w2dfnkpg8"><g transform="translate(690 880)"><rect x="0" y="0" width="100" height="50" fill="rgba(255,255,255,1)" stroke="#ee1d24" stroke-width="2" stroke-linecap="round" stroke-linejoin="round"/></g><g transform="translate(717, 895.5) rotate(0, 23, 9.5)" width="46" height="19"><text text-decoration="none" x="1.5" fill="rgb(191, 42, 47)" font-weight="bold" font-size="10pt" font-family="Lato"  y="17">Admin</text><text text-decoration="none" x="44.5" fill="#4b4b4b" font-size="10pt" font-family="noto_regular"  y="17"></text></g></g><g id="cjpnc8hfpa"><g><path d="M 587,916 L 690,905" fill="none" stroke="#a0a0a0" stroke-width="1.5" stroke-linecap="round" stroke-linejoin="round"/></g></g><g id="1k8q1anjum"><g><path d="M 598,981 L 690,930" fill="none" stroke="#a0a0a0" stroke-width="1.5" stroke-linecap="round" stroke-linejoin="round"/></g></g><g id="obnsw1wfcb"><g transform="translate(510 890)"><ellipse cx="50" cy="25" rx="50" ry="25" fill="rgba(255,255,255,1)" stroke="#003494" stroke-width="2" stroke-linecap="round" stroke-linejoin="round"/></g><g transform="translate(520, 905.5) rotate(0, 40, 9.5)" width="80" height="19"><text text-decoration="none" x="4.5" fill="rgb(20, 56, 114)" font-weight="bold" font-size="10pt" font-family="Lato"  y="17">User&#160;</text><text text-decoration="none" x="37.5" fill="rgb(20, 56, 114)" font-weight="bold" font-size="10pt" font-family="Lato"  y="17">name</text><text text-decoration="none" x="75.5" fill="#4b4b4b" font-size="10pt" font-family="noto_regular"  y="17"></text></g></g><g id="795raqsdzr"><g transform="translate(500 955)"><ellipse cx="50" cy="25" rx="50" ry="25" fill="rgba(255,255,255,1)" stroke="#003494" stroke-width="2" stroke-linecap="round" stroke-linejoin="round"/></g><g transform="translate(514.5, 970.5) rotate(0, 35.5, 9.5)" width="71" height="19"><text text-decoration="none" x="5" fill="rgb(20, 56, 114)" font-weight="bold" font-size="10pt" font-family="Lato"  y="17">Password</text><text text-decoration="none" x="66" fill="#4b4b4b" font-size="10pt" font-family="noto_regular"  y="17"></text></g></g><g id="2ae90xq3if"><g transform="translate(920 800)"><rect x="0" y="0" width="100" height="50" fill="rgba(255,255,255,1)" stroke="#ee1d24" stroke-width="2" stroke-linecap="round" stroke-linejoin="round"/></g><g transform="translate(950.5, 815.5) rotate(0, 19.5, 9.5)" width="39" height="19"><text text-decoration="none" x="2" fill="rgb(191, 42, 47)" font-weight="bold" font-size="10pt" font-family="Lato"  y="17">Login</text><text text-decoration="none" x="37" fill="#4b4b4b" font-size="10pt" font-family="noto_regular"  y="17"></text></g></g><g id="1ir84g85oa"><g transform="translate(1035 705)"><ellipse cx="40.00000059604645" cy="22.499999403953552" rx="40.00000059604645" ry="22.499999403953552" fill="rgba(255,255,255,1)" stroke="#f6902a" stroke-width="1.5" stroke-linecap="round" stroke-linejoin="round"/></g><g transform="translate(1053.5000005960464, 709.9999994039536) rotate(0, 21.5, 17.5)" width="43" height="35"><text text-decoration="none" x="6.5" fill="rgb(75, 75, 75)" font-weight="bold" font-size="10pt" font-family="Lato"  y="14">User&#160;</text><text text-decoration="none" x="1.5" fill="rgb(75, 75, 75)" font-weight="bold" font-size="10pt" font-family="Lato"  y="36">Name</text><text text-decoration="none" x="41.5" fill="#4b4b4b" font-size="10pt" font-family="noto_regular"  y="36"></text></g></g><g id="2ip8acqcvg"><g transform="translate(1085 765)"><ellipse cx="42.500001192092896" cy="22.499999403953552" rx="42.500001192092896" ry="22.499999403953552" fill="rgba(255,255,255,1)" stroke="#f6902a" stroke-width="1.5" stroke-linecap="round" stroke-linejoin="round"/></g><g transform="translate(1092.000001192093, 777.9999994039536) rotate(0, 35.5, 9.5)" width="71" height="19"><text text-decoration="none" x="5" fill="rgb(75, 75, 75)" font-weight="bold" font-size="10pt" font-family="Lato"  y="17">Password</text><text text-decoration="none" x="66" fill="#4b4b4b" font-size="10pt" font-family="noto_regular"  y="17"></text></g></g><g id="25etd6elsu"><g><path d="M 867.95,594 L 805,710" fill="none" stroke="#a0a0a0" stroke-width="1.5" stroke-linecap="round" stroke-linejoin="round"/></g></g><g id="2q0yb7bgw8"><g transform="translate(740 710)"><path d="M 130,30 L 65,60 L 0,30 L 65,0 L 130,30 L 130,30 Z" fill="rgba(255,255,255,1)" stroke="#75c19b" stroke-width="1.5" stroke-linecap="round" stroke-linejoin="round"/></g><g transform="translate(775, 730.5) rotate(0, 30, 9.5)" width="60" height="19"><text text-decoration="none" x="3" fill="rgb(75, 75, 75)" font-weight="bold" font-size="10pt" font-family="Lato"  y="17">Perform</text><text text-decoration="none" x="57" fill="#4b4b4b" font-size="10pt" font-family="noto_regular"  y="17"></text></g></g><g id="xxmkygtu72"><g><path d="M 755,880 L 790,765" fill="none" stroke="#a0a0a0" stroke-width="1.5" stroke-linecap="round" stroke-linejoin="round"/></g></g><g id="2lqq286t07"><g><path d="M 846,749.5 L 920,800" fill="none" stroke="#a0a0a0" stroke-width="1.5" stroke-linecap="round" stroke-linejoin="round"/></g></g><g id="2llmvs6mc0"><g><path d="M 808,737.5 L 808,737.5" fill="none" stroke="#a0a0a0" stroke-width="1.5" stroke-linecap="round" stroke-linejoin="round"/></g></g><g id="dwyb5n7n97"><g><path d="M 980,800 L 1040,740" fill="none" stroke="#a0a0a0" stroke-width="1.5" stroke-linecap="round" stroke-linejoin="round"/></g></g><g id="1y5l83520g"><g><path d="M 1020,820 L 1085,795" fill="none" stroke="#a0a0a0" stroke-width="1.5" stroke-linecap="round" stroke-linejoin="round"/></g></g><g id="1j6540uyx9"><g><path d="M 735,928 L 675,1020" fill="none" stroke="#a0a0a0" stroke-width="1.5" stroke-linecap="round" stroke-linejoin="round"/></g></g><g id="45i3hkm2l8"><g transform="translate(610 1015)"><path d="M 104.99999761581421,30 L 52.499998807907104,60 L 0,30 L 52.499998807907104,0 L 104.99999761581421,30 L 104.99999761581421,30 Z" fill="rgba(255,255,255,1)" stroke="#75c19b" stroke-width="1.5" stroke-linecap="round" stroke-linejoin="round"/></g><g transform="translate(631.4999988079071, 1035.5) rotate(0, 31, 9.5)" width="62" height="19"><text text-decoration="none" x="1.5" fill="rgb(75, 75, 75)" font-weight="bold" font-size="10pt" font-family="Lato"  y="17">Function</text><text text-decoration="none" x="60.5" fill="#4b4b4b" font-size="10pt" font-family="noto_regular"  y="17"></text></g></g><g id="cild6hlcwm"><g><path d="M 547,1083 L 620,1050" fill="none" stroke="#a0a0a0" stroke-width="1.5" stroke-linecap="round" stroke-linejoin="round"/></g></g><g id="wvjvx4dlou"><g transform="translate(450 1065)"><rect x="0" y="0" width="100" height="50" fill="rgba(255,255,255,1)" stroke="#ee1d24" stroke-width="2" stroke-linecap="round" stroke-linejoin="round"/></g><g transform="translate(478.5, 1072.5) rotate(0, 21.5, 17.5)" width="43" height="35"><text text-decoration="none" x="2.5" fill="rgb(191, 42, 47)" font-size="10pt" font-family="Lato"  y="14">Assign</text><text text-decoration="none" x="40.5" fill="rgb(191, 42, 47)" font-size="10pt" font-family="Lato"  y="14"></text><text text-decoration="none" x="4.5" fill="rgb(191, 42, 47)" font-size="10pt" font-family="Lato"  y="36">event</text><text text-decoration="none" x="38.5" fill="#4b4b4b" font-size="10pt" font-family="noto_regular"  y="36"></text></g></g><g id="6ddwsw68x6"><g><path d="M 386,1000 L 465,1065" fill="none" stroke="#a0a0a0" stroke-width="1.5" stroke-linecap="round" stroke-linejoin="round"/></g></g><g id="27za11apzi"><g><path d="M 360,1060 L 450,1075" fill="none" stroke="#a0a0a0" stroke-width="1.5" stroke-linecap="round" stroke-linejoin="round"/></g></g><g id="1k4r41vrot"><g transform="translate(320 965)"><ellipse cx="50" cy="25" rx="50" ry="25" fill="rgba(255,255,255,1)" stroke="#0054a5" stroke-width="2" stroke-linecap="round" stroke-linejoin="round"/></g><g transform="translate(349.5, 972.5) rotate(0, 20.5, 17.5)" width="41" height="35"><text text-decoration="none" x="2" fill="rgb(0, 0, 0)" font-weight="bold" font-size="10pt" font-family="Lato"  y="14">Event</text><text text-decoration="none" x="39" fill="rgb(0, 0, 0)" font-weight="bold" font-size="10pt" font-family="Lato"  y="14"></text><text text-decoration="none" x="1.5" fill="rgb(0, 0, 0)" font-weight="bold" font-size="10pt" font-family="Lato"  y="36">name</text><text text-decoration="none" x="39.5" fill="#4b4b4b" font-size="10pt" font-family="noto_regular"  y="36"></text></g></g><g id="9kp3nknr9q"><g transform="translate(285 1040)"><ellipse cx="50" cy="25" rx="50" ry="25" fill="rgba(255,255,255,1)" stroke="#0054a5" stroke-width="2" stroke-linecap="round" stroke-linejoin="round"/></g><g transform="translate(282, 1047.5) rotate(0, 53, 17.5)" width="106" height="35"><text text-decoration="none" x="34.5" fill="rgb(0, 0, 0)" font-weight="bold" font-size="10pt" font-family="Lato"  y="14">Event</text><text text-decoration="none" x="71.5" fill="rgb(0, 0, 0)" font-weight="bold" font-size="10pt" font-family="Lato"  y="14"></text><text text-decoration="none" x="4.5" fill="rgb(0, 0, 0)" font-weight="bold" font-size="10pt" font-family="Lato"  y="36">manager/empl</text><text text-decoration="none" x="101.5" fill="#4b4b4b" font-size="10pt" font-family="noto_regular"  y="36"></text></g></g><g id="20bxdus9ze"><g><path d="M 645,1065 L 495,1235" fill="none" stroke="#a0a0a0" stroke-width="1.5" stroke-linecap="round" stroke-linejoin="round"/></g></g><g id="6qmavilng1"><g transform="translate(400 1220)"><rect x="0" y="0" width="100" height="50" fill="rgba(255,255,255,1)" stroke="#ee1d24" stroke-width="2" stroke-linecap="round" stroke-linejoin="round"/></g><g transform="translate(414.5, 1227.5) rotate(0, 35.5, 17.5)" width="71" height="35"><text text-decoration="none" x="13.5" fill="rgb(191, 42, 47)" font-weight="bold" font-size="10pt" font-family="Lato"  y="14">Create</text><text text-decoration="none" x="57.5" fill="rgb(191, 42, 47)" font-weight="bold" font-size="10pt" font-family="Lato"  y="14"></text><text text-decoration="none" x="4" fill="rgb(191, 42, 47)" font-weight="bold" font-size="10pt" font-family="Lato"  y="36">Epmloyee</text><text text-decoration="none" x="67" fill="#4b4b4b" font-size="10pt" font-family="noto_regular"  y="36"></text></g></g><g id="1n4k3ocrds"><g><path d="M 366,1144 L 420,1215" fill="none" stroke="#a0a0a0" stroke-width="1.5" stroke-linecap="round" stroke-linejoin="round"/></g></g><g id="1k3xdfg8zy"><g><path d="M 675.95,1070 L 615,1225" fill="none" stroke="#a0a0a0" stroke-width="1.5" stroke-linecap="round" stroke-linejoin="round"/></g></g><g id="v4s5w4lab3"><g><path d="M 693.45,1057.5 L 750,1205" fill="none" stroke="#a0a0a0" stroke-width="1.5" stroke-linecap="round" stroke-linejoin="round"/></g></g><g id="cwqe3uc8b2"><g transform="translate(315 1130)"><ellipse cx="50" cy="25" rx="50" ry="25" fill="rgba(255,255,255,1)" stroke="#0054a5" stroke-width="2" stroke-linecap="round" stroke-linejoin="round"/></g><g transform="translate(332.5, 1137.5) rotate(0, 32.5, 17.5)" width="65" height="35"><text text-decoration="none" x="3" fill="rgb(0, 0, 0)" font-size="10pt" font-family="Lato"  y="14">Employee</text><text text-decoration="none" x="62" fill="rgb(0, 0, 0)" font-size="10pt" font-family="Lato"  y="14"></text><text text-decoration="none" x="13" fill="rgb(0, 0, 0)" font-size="10pt" font-family="Lato"  y="36">details</text><text text-decoration="none" x="52" fill="#4b4b4b" font-size="10pt" font-family="noto_regular"  y="36"></text></g></g><g id="2a3fsq0i3a"><g transform="translate(570 1200)"><rect x="0" y="0" width="100" height="50" fill="rgba(255,255,255,1)" stroke="#ee1d24" stroke-width="2" stroke-linecap="round" stroke-linejoin="round"/></g><g transform="translate(584.5, 1207.5) rotate(0, 35.5, 17.5)" width="71" height="35"><text text-decoration="none" x="11.5" fill="rgb(191, 42, 47)" font-weight="bold" font-size="10pt" font-family="Lato"  y="14">Update</text><text text-decoration="none" x="59.5" fill="rgb(191, 42, 47)" font-weight="bold" font-size="10pt" font-family="Lato"  y="14"></text><text text-decoration="none" x="4" fill="rgb(191, 42, 47)" font-weight="bold" font-size="10pt" font-family="Lato"  y="36">Employee</text><text text-decoration="none" x="67" fill="#4b4b4b" font-size="10pt" font-family="noto_regular"  y="36"></text></g></g><g id="15kr3fbil7"><g transform="translate(735 1200)"><rect x="0" y="0" width="100" height="50" fill="rgba(255,255,255,1)" stroke="#ee1d24" stroke-width="2" stroke-linecap="round" stroke-linejoin="round"/></g><g transform="translate(750, 1207.5) rotate(0, 35, 17.5)" width="70" height="35"><text text-decoration="none" x="20" fill="rgb(191, 42, 47)" font-weight="bold" font-size="10pt" font-family="Lato"  y="14">view</text><text text-decoration="none" x="50" fill="rgb(191, 42, 47)" font-weight="bold" font-size="10pt" font-family="Lato"  y="14"></text><text text-decoration="none" x="4" fill="rgb(191, 42, 47)" font-weight="bold" font-size="10pt" font-family="Lato"  y="36">Feedback</text><text text-decoration="none" x="66" fill="#4b4b4b" font-size="10pt" font-family="noto_regular"  y="36"></text></g></g><g id="2hdm1fie3g"><g><path d="M 764.5,1247.5 L 720,1365" fill="none" stroke="#a0a0a0" stroke-width="1.5" stroke-linecap="round" stroke-linejoin="round"/></g></g><g id="1vsgvonlhy"><g><path d="M 604,1249 L 550,1350" fill="none" stroke="#a0a0a0" stroke-width="1.5" stroke-linecap="round" stroke-linejoin="round"/></g></g><g id="1w286sxdo2"><g transform="translate(505 1320)"><ellipse cx="50" cy="25" rx="50" ry="25" fill="rgba(255,255,255,1)" stroke="#0054a5" stroke-width="2" stroke-linecap="round" stroke-linejoin="round"/></g><g transform="translate(515.5, 1327.5) rotate(0, 39.5, 17.5)" width="79" height="35"><text text-decoration="none" x="3.5" fill="rgb(0, 0, 0)" font-size="10pt" font-family="Lato"  y="14">Employee&#160;</text><text text-decoration="none" x="65.5" fill="rgb(0, 0, 0)" font-size="10pt" font-family="Lato"  y="14">N</text><text text-decoration="none" x="75.5" fill="rgb(0, 0, 0)" font-size="10pt" font-family="Lato"  y="14"></text><text text-decoration="none" x="20" fill="rgb(0, 0, 0)" font-size="10pt" font-family="Lato"  y="36">details</text><text text-decoration="none" x="59" fill="#4b4b4b" font-size="10pt" font-family="noto_regular"  y="36"></text></g></g><g id="11qgkpfkxa"><g><path d="M 763,1247 L 810,1360" fill="none" stroke="#a0a0a0" stroke-width="1.5" stroke-linecap="round" stroke-linejoin="round"/></g></g><g id="1jmz9udeat"><g transform="translate(680 1330)"><ellipse cx="50" cy="25" rx="50" ry="25" fill="rgba(255,255,255,1)" stroke="#003494" stroke-width="2" stroke-linecap="round" stroke-linejoin="round"/></g><g transform="translate(709, 1345.5) rotate(0, 21, 9.5)" width="42" height="19"><text text-decoration="none" x="2.5" fill="rgb(20, 56, 114)" font-size="10pt" font-family="Lato"  y="17">User&#160;</text><text text-decoration="none" x="32.5" fill="rgb(20, 56, 114)" font-size="10pt" font-family="Lato"  y="17">1</text><text text-decoration="none" x="39.5" fill="#4b4b4b" font-size="10pt" font-family="noto_regular"  y="17"></text></g></g><g id="1bhwj0zjiu"><g transform="translate(795 1340)"><ellipse cx="50" cy="25" rx="50" ry="25" fill="rgba(255,255,255,1)" stroke="#003494" stroke-width="2" stroke-linecap="round" stroke-linejoin="round"/></g><g transform="translate(824, 1355.5) rotate(0, 21, 9.5)" width="42" height="19"><text text-decoration="none" x="2.5" fill="rgb(20, 56, 114)" font-size="10pt" font-family="Lato"  y="17">User&#160;</text><text text-decoration="none" x="32.5" fill="rgb(20, 56, 114)" font-size="10pt" font-family="Lato"  y="17">2</text><text text-decoration="none" x="39.5" fill="#4b4b4b" font-size="10pt" font-family="noto_regular"  y="17"></text></g></g><g id="1svd4jwdsk"><g><path d="M 923.95,593 L 927.5,777.5 L 905,875" fill="none" stroke="#a0a0a0" stroke-width="1.5" stroke-linecap="round" stroke-linejoin="round"/></g></g><g id="2ry10prp8l"><g transform="translate(840 865)"><path d="M 130,30 L 65,60 L 0,30 L 65,0 L 130,30 L 130,30 Z" fill="rgba(255,255,255,1)" stroke="#75c19b" stroke-width="1.5" stroke-linecap="round" stroke-linejoin="round"/></g><g transform="translate(889, 885.5) rotate(0, 16, 9.5)" width="32" height="19"><text text-decoration="none" x="2" fill="rgb(75, 75, 75)" font-size="10pt" font-family="Lato"  y="17">View</text><text text-decoration="none" x="30" fill="#4b4b4b" font-size="10pt" font-family="noto_regular"  y="17"></text></g></g><g id="2q769iqsbi"><g><path d="M 789,902 L 870,910" fill="none" stroke="#a0a0a0" stroke-width="1.5" stroke-linecap="round" stroke-linejoin="round"/></g></g><g id="1lf1oqa92e"><g><path d="M 931,910 L 930,985" fill="none" stroke="#a0a0a0" stroke-width="1.5" stroke-linecap="round" stroke-linejoin="round"/></g></g><g id="63fhro9jri"><g transform="translate(880 985)"><rect x="0" y="0" width="100" height="50" fill="rgba(255,255,255,1)" stroke="#ee1d24" stroke-width="2" stroke-linecap="round" stroke-linejoin="round"/></g><g transform="translate(906, 992.5) rotate(0, 24, 17.5)" width="48" height="35"><text text-decoration="none" x="5.5" fill="rgb(191, 42, 47)" font-size="10pt" font-family="Lato"  y="14">Event&#160;</text><text text-decoration="none" x="42.5" fill="rgb(191, 42, 47)" font-size="10pt" font-family="Lato"  y="14"></text><text text-decoration="none" x="1.5" fill="rgb(191, 42, 47)" font-size="10pt" font-family="Lato"  y="36">records</text><text text-decoration="none" x="46.5" fill="#4b4b4b" font-size="10pt" font-family="noto_regular"  y="36"></text></g></g><g id="1osoaaicq2"><g><path d="M 899,1034 L 885,1125" fill="none" stroke="#a0a0a0" stroke-width="1.5" stroke-linecap="round" stroke-linejoin="round"/></g></g><g id="1jl47va5vy"><g><path d="M 921,1035 L 970,1120" fill="none" stroke="#a0a0a0" stroke-width="1.5" stroke-linecap="round" stroke-linejoin="round"/></g></g><g id="2c31hvw1px"><g transform="translate(820 1100)"><ellipse cx="50" cy="25" rx="50" ry="25" fill="rgba(255,255,255,1)" stroke="#003494" stroke-width="2" stroke-linecap="round" stroke-linejoin="round"/></g><g transform="translate(845.5, 1115.5) rotate(0, 24.5, 9.5)" width="49" height="19"><text text-decoration="none" x="2.5" fill="rgb(20, 56, 114)" font-size="10pt" font-family="Lato"  y="17">Event&#160;</text><text text-decoration="none" x="39.5" fill="rgb(20, 56, 114)" font-size="10pt" font-family="Lato"  y="17">1</text><text text-decoration="none" x="46.5" fill="#4b4b4b" font-size="10pt" font-family="noto_regular"  y="17"></text></g></g><g id="4lxsgbypuu"><g transform="translate(940 1090)"><ellipse cx="50" cy="25" rx="50" ry="25" fill="rgba(255,255,255,1)" stroke="#0054a5" stroke-width="1.5" stroke-linecap="round" stroke-linejoin="round"/></g><g transform="translate(965.5, 1105.5) rotate(0, 24.5, 9.5)" width="49" height="19"><text text-decoration="none" x="2.5" fill="rgb(0, 0, 0)" font-size="10pt" font-family="Lato"  y="17">Event&#160;</text><text text-decoration="none" x="39.5" fill="rgb(0, 0, 0)" font-size="10pt" font-family="Lato"  y="17">2</text><text text-decoration="none" x="46.5" fill="#4b4b4b" font-size="10pt" font-family="noto_regular"  y="17"></text></g></g><g id="pv6ed5czge"><g><path d="M 685.45,1058.5 L 670,1410" fill="none" stroke="#a0a0a0" stroke-width="1.5" stroke-linecap="round" stroke-linejoin="round"/></g></g><g id="byasp9qqiv"><g transform="translate(620 1395)"><rect x="0" y="0" width="100" height="50" fill="rgba(255,255,255,1)" stroke="#ee1d24" stroke-width="2" stroke-linecap="round" stroke-linejoin="round"/></g><g transform="translate(637.5, 1394.5) rotate(0, 32.5, 25.5)" width="65" height="51"><text text-decoration="none" x="18.5" fill="rgb(191, 42, 47)" font-size="10pt" font-family="Lato"  y="14">View&#160;</text><text text-decoration="none" x="3" fill="rgb(191, 42, 47)" font-size="10pt" font-family="Lato"  y="33">employee</text><text text-decoration="none" x="62" fill="rgb(191, 42, 47)" font-size="10pt" font-family="Lato"  y="33"></text><text text-decoration="none" x="10" fill="rgb(191, 42, 47)" font-size="10pt" font-family="Lato"  y="55">records</text><text text-decoration="none" x="55" fill="#4b4b4b" font-size="10pt" font-family="noto_regular"  y="55"></text></g></g><g id="7dl5s7hej7"><g><path d="M 719,1427 L 840,1430" fill="none" stroke="#a0a0a0" stroke-width="1.5" stroke-linecap="round" stroke-linejoin="round"/></g></g><g id="b8eeguyqr7"><g><path d="M 617,1425 L 530,1440" fill="none" stroke="#a0a0a0" stroke-width="1.5" stroke-linecap="round" stroke-linejoin="round"/></g></g><g id="po5p1md27v"><g transform="translate(480 1415)"><ellipse cx="50" cy="25" rx="50" ry="25" fill="rgba(255,255,255,1)" stroke="#003494" stroke-width="2" stroke-linecap="round" stroke-linejoin="round"/></g><g transform="translate(491.5, 1430.5) rotate(0, 38.5, 9.5)" width="77" height="19"><text text-decoration="none" x="4" fill="rgb(20, 56, 114)" font-size="10pt" font-family="Lato"  y="17">Employee&#160;</text><text text-decoration="none" x="66" fill="rgb(20, 56, 114)" font-size="10pt" font-family="Lato"  y="17">2</text><text text-decoration="none" x="73" fill="#4b4b4b" font-size="10pt" font-family="noto_regular"  y="17"></text></g></g><g id="2ohhnh1oxu"><g transform="translate(780 1405)"><ellipse cx="50" cy="25" rx="50" ry="25" fill="rgba(255,255,255,1)" stroke="#003494" stroke-width="2" stroke-linecap="round" stroke-linejoin="round"/></g><g transform="translate(791.5, 1420.5) rotate(0, 38.5, 9.5)" width="77" height="19"><text text-decoration="none" x="4" fill="rgb(20, 56, 114)" font-size="10pt" font-family="Lato"  y="17">Employee&#160;</text><text text-decoration="none" x="66" fill="rgb(20, 56, 114)" font-size="10pt" font-family="Lato"  y="17">1</text><text text-decoration="none" x="73" fill="#4b4b4b" font-size="10pt" font-family="noto_regular"  y="17"></text></g></g><g id="1vzzou5e28"><g><path d="M 965.95,597 L 1225,759.5 L 1190,880" fill="none" stroke="#a0a0a0" stroke-width="1.5" stroke-linecap="round" stroke-linejoin="round"/></g></g><g id="43avb1j73p"><g transform="translate(1125 870)"><path d="M 130,30 L 65,60 L 0,30 L 65,0 L 130,30 L 130,30 Z" fill="rgba(255,255,255,1)" stroke="#75c19b" stroke-width="1.5" stroke-linecap="round" stroke-linejoin="round"/></g><g transform="translate(1163, 890.5) rotate(0, 27, 9.5)" width="54" height="19"><text text-decoration="none" x="0.5" fill="rgb(75, 75, 75)" font-size="10pt" font-family="Lato"  y="17">Function</text><text text-decoration="none" x="53.5" fill="#4b4b4b" font-size="10pt" font-family="noto_regular"  y="17"></text></g></g><g id="1caepv8m1r"><g><path d="M 1154,913 L 1105,995" fill="none" stroke="#a0a0a0" stroke-width="1.5" stroke-linecap="round" stroke-linejoin="round"/></g></g><g id="1e28a9mqy9"><g><path d="M 1225,913 L 1290,985" fill="none" stroke="#a0a0a0" stroke-width="1.5" stroke-linecap="round" stroke-linejoin="round"/></g></g><g id="7pv61ltgzr"><g transform="translate(1245 965)"><rect x="0" y="0" width="100" height="50" fill="rgba(255,255,255,1)" stroke="#75c19b" stroke-width="1.5" stroke-linecap="round" stroke-linejoin="round"/></g><g transform="translate(1251, 980.5) rotate(0, 44, 9.5)" width="88" height="19"><text text-decoration="none" x="3.5" fill="rgb(75, 75, 75)" font-size="10pt" font-family="Lato"  y="17">Update&#160;</text><text text-decoration="none" x="50.5" fill="rgb(75, 75, 75)" font-size="10pt" font-family="Lato"  y="17">event</text><text text-decoration="none" x="84.5" fill="#4b4b4b" font-size="10pt" font-family="noto_regular"  y="17"></text></g></g><g id="1s6rqhcz7c"><g transform="translate(1075 980)"><path d="M 0,0 L 100,0 L 100,50 L 0,50 L 0,0 Z M 5,5 L 95,5 L 95,45 L 5,45 L 5,5 Z" fill="rgba(255,255,255,1)" stroke="#75c19b" stroke-width="1.5" stroke-linecap="round" stroke-linejoin="round"/></g><g transform="translate(1095, 987.5) rotate(0, 30, 17.5)" width="60" height="35"><text text-decoration="none" x="7" fill="rgb(75, 75, 75)" font-size="10pt" font-family="Lato"  y="14">Provide</text><text text-decoration="none" x="53" fill="rgb(75, 75, 75)" font-size="10pt" font-family="Lato"  y="14"></text><text text-decoration="none" x="3" fill="rgb(75, 75, 75)" font-size="10pt" font-family="Lato"  y="36">feedback</text><text text-decoration="none" x="57" fill="#4b4b4b" font-size="10pt" font-family="noto_regular"  y="36"></text></g></g><g id="2kfnlz3c4i"><g><path d="M 1271,1013 L 1260,1085" fill="none" stroke="#a0a0a0" stroke-width="1.5" stroke-linecap="round" stroke-linejoin="round"/></g></g><g id="7vjjxwmznd"><g transform="translate(1190 1055)"><ellipse cx="50" cy="25" rx="50" ry="25" fill="rgba(255,255,255,1)" stroke="#f6902a" stroke-width="1.5" stroke-linecap="round" stroke-linejoin="round"/></g><g transform="translate(1192.5, 1062.5) rotate(0, 47.5, 17.5)" width="95" height="35"><text text-decoration="none" x="0.5" fill="rgb(75, 75, 75)" font-size="10pt" font-family="Lato"  y="14">search&#160;</text><text text-decoration="none" x="42.5" fill="rgb(75, 75, 75)" font-size="10pt" font-family="Lato"  y="14">by&#160;</text><text text-decoration="none" x="60.5" fill="rgb(75, 75, 75)" font-size="10pt" font-family="Lato"  y="14">name&#160;</text><text text-decoration="none" x="23" fill="rgb(75, 75, 75)" font-size="10pt" font-family="Lato"  y="36">of&#160;</text><text text-decoration="none" x="38" fill="rgb(75, 75, 75)" font-size="10pt" font-family="Lato"  y="36">event</text><text text-decoration="none" x="72" fill="#4b4b4b" font-size="10pt" font-family="noto_regular"  y="36"></text></g></g><g id="5r2n90ahs7"><g><path d="M 462,578 L 260,595" fill="none" stroke="#a0a0a0" stroke-width="1.5" stroke-linecap="round" stroke-linejoin="round"/></g></g><g id="1n1cho7gce"><g transform="translate(195 565)"><ellipse cx="50" cy="25" rx="50" ry="25" fill="rgba(255,255,255,1)" stroke="#003494" stroke-width="2" stroke-linecap="round" stroke-linejoin="round"/></g><g transform="translate(202.5, 572.5) rotate(0, 42.5, 17.5)" width="85" height="35"><text text-decoration="none" x="5" fill="rgb(75, 75, 75)" font-weight="bold" font-size="10pt" font-family="Lato"  y="14">Payment&#160;</text><text text-decoration="none" x="67" fill="rgb(75, 75, 75)" font-weight="bold" font-size="10pt" font-family="Lato"  y="14">of&#160;</text><text text-decoration="none" x="23.5" fill="rgb(75, 75, 75)" font-weight="bold" font-size="10pt" font-family="Lato"  y="36">event</text><text text-decoration="none" x="61.5" fill="#4b4b4b" font-size="10pt" font-family="noto_regular"  y="36"></text></g></g></svg>